<svg width="211pt" height="43pt" viewBox="0 0 211 43" xmlns="http://www.w3.org/2000/svg"><g id="fontsvg1722955734032" stroke-linecap="round" fill-rule="evenodd" fill="#1387f6"><path d="M 173.844 37.941 L 173.844 38.041 L 173.794 38.041 Q 173.239 39.706 171.143 40.473 A 7.718 7.718 0 0 1 170.794 40.591 A 9.468 9.468 0 0 1 169.528 40.879 Q 167.931 41.124 166.594 40.691 A 4.773 4.773 0 0 1 165.752 40.366 Q 164.395 39.675 164.542 38.309 A 2.678 2.678 0 0 1 164.544 38.291 L 164.594 37.141 L 164.594 37.041 Q 164.794 35.841 164.819 35.416 A 7.743 7.743 0 0 1 164.833 35.217 Q 164.85 35.017 164.875 34.884 A 1.462 1.462 0 0 1 164.894 34.791 A 12.702 12.702 0 0 1 165.134 33.105 A 10.839 10.839 0 0 1 165.319 32.366 A 47.019 47.019 0 0 0 165.471 31.83 Q 165.682 31.066 165.794 30.541 Q 165.944 29.841 166.094 29.216 Q 166.218 28.701 166.274 28.372 A 5.109 5.109 0 0 0 166.294 28.241 Q 164.394 30.841 163.594 31.391 Q 161.728 32.698 159.295 32.698 A 9.293 9.293 0 0 1 158.944 32.691 A 6.641 6.641 0 0 1 158.332 32.628 Q 157.308 32.469 157.071 32.001 A 0.647 0.647 0 0 1 157.044 31.941 A 33.537 33.537 0 0 0 156.867 31.456 Q 156.507 30.494 156.344 30.291 Q 156.094 29.957 155.913 29.239 A 7.802 7.802 0 0 1 155.844 28.941 Q 154.844 33.364 153.874 35.805 A 14 14 0 0 1 153.294 37.091 Q 152.794 38.041 152.294 38.791 Q 151.714 40.158 149.898 40.839 A 8.098 8.098 0 0 1 149.094 41.091 A 8.21 8.21 0 0 1 147.424 41.378 Q 147.189 41.393 146.955 41.393 A 7.119 7.119 0 0 1 144.594 40.991 Q 142.49 40.321 142.49 38.645 A 2.784 2.784 0 0 1 142.494 38.491 A 17.862 17.862 0 0 1 142.625 37.144 Q 142.809 35.754 143.219 33.966 A 120.268 120.268 0 0 1 144.088 30.433 A 144.788 144.788 0 0 1 144.694 28.191 A 526.436 526.436 0 0 1 145.739 24.292 Q 147.479 17.907 148.319 15.641 A 125.571 125.571 0 0 1 148.836 14.269 Q 149.407 12.783 149.871 11.71 A 35.493 35.493 0 0 1 150.144 11.091 Q 151.641 7.889 152.861 6.14 A 12.359 12.359 0 0 1 153.344 5.491 Q 154.894 2.341 158.494 1.691 A 9.258 9.258 0 0 1 159.661 1.539 Q 161.327 1.433 162.727 2.011 A 6.332 6.332 0 0 1 163.494 2.391 A 29.843 29.843 0 0 1 163.691 2.938 Q 163.949 3.678 164.021 4.047 A 1.774 1.774 0 0 1 164.044 4.191 A 1.981 1.981 0 0 1 164.055 4.398 Q 164.055 5.092 163.54 5.614 A 2.415 2.415 0 0 1 163.344 5.791 A 0.078 0.078 0 0 1 163.337 5.821 Q 163.32 5.863 163.258 5.927 A 1.045 1.045 0 0 1 163.244 5.941 A 16.183 16.183 0 0 1 163.505 7.96 Q 163.534 8.405 163.534 8.838 A 12.404 12.404 0 0 1 163.444 10.341 A 47.036 47.036 0 0 1 162.892 13.814 A 42.917 42.917 0 0 1 162.794 14.291 Q 165.494 9.691 167.094 7.541 A 43.347 43.347 0 0 1 169.113 5.009 Q 171.213 2.581 173.114 1.279 A 12.759 12.759 0 0 1 173.244 1.191 A 6.309 6.309 0 0 1 174.282 0.716 Q 174.797 0.532 175.396 0.402 A 10.869 10.869 0 0 1 175.569 0.366 A 8.06 8.06 0 0 1 176.835 0.212 Q 176.978 0.207 177.119 0.207 A 6.793 6.793 0 0 1 178.194 0.291 A 4.093 4.093 0 0 1 179.386 0.665 A 3.529 3.529 0 0 1 180.269 1.291 A 2.296 2.296 0 0 1 180.874 2.329 Q 181.043 2.916 180.994 3.691 Q 179.594 13.441 177.994 21.866 A 124.755 124.755 0 0 1 174.237 36.741 A 114.172 114.172 0 0 1 173.844 37.941 Z M 70.594 27.241 L 70.494 27.391 A 16.952 16.952 0 0 1 70.589 27.297 Q 71.045 26.848 70.915 27.058 A 1.138 1.138 0 0 1 70.894 27.091 A 147.433 147.433 0 0 0 70.2 28.088 Q 69.159 29.598 68.718 30.339 A 6.539 6.539 0 0 0 68.494 30.741 Q 68.094 31.541 67.644 32.516 Q 67.258 33.354 66.76 34.413 A 472.813 472.813 0 0 1 66.594 34.766 A 31.469 31.469 0 0 0 66.179 35.683 Q 65.863 36.416 65.644 37.041 Q 65.294 38.041 64.794 38.991 Q 62.68 42.655 57.565 42.215 A 14.652 14.652 0 0 1 56.894 42.141 A 7.808 7.808 0 0 1 55.911 41.957 Q 55.322 41.805 54.844 41.566 Q 54.026 41.157 54.134 40.354 A 1.575 1.575 0 0 1 54.144 40.291 Q 54.513 38.449 55.771 34.36 A 207.156 207.156 0 0 1 55.994 33.641 Q 58.844 24.441 59.394 21.791 Q 59.744 20.891 60.019 19.941 Q 60.256 19.125 60.51 18.493 A 10.145 10.145 0 0 1 60.594 18.291 A 3.762 3.762 0 0 1 60.811 17.798 Q 61.387 16.725 62.344 17.141 A 1.724 1.724 0 0 1 62.877 16.073 Q 63.145 15.809 63.544 15.591 Q 64.644 14.991 65.994 14.991 Q 67.344 14.991 68.619 15.616 A 3.202 3.202 0 0 1 70.219 17.38 A 4.392 4.392 0 0 1 70.344 17.741 Q 74.594 14.041 78.094 14.891 A 3.164 3.164 0 0 1 79.668 15.743 A 4.37 4.37 0 0 1 80.144 16.291 A 13.271 13.271 0 0 1 83.165 14.084 A 11.405 11.405 0 0 1 85.794 13.091 A 14.208 14.208 0 0 1 86.34 13.08 Q 89.816 13.08 91.394 14.891 A 7.893 7.893 0 0 1 91.761 15.285 A 9.161 9.161 0 0 1 91.894 15.441 Q 92.463 16.05 92.636 16.33 A 0.749 0.749 0 0 1 92.694 16.441 Q 93.529 17.74 93.245 22.182 A 46.966 46.966 0 0 1 93.194 22.891 Q 92.644 29.441 90.694 36.041 Q 89.657 39.351 88.814 39.488 A 0.463 0.463 0 0 1 88.794 39.491 A 2.569 2.569 0 0 1 88.459 39.536 Q 88.156 39.556 87.883 39.494 A 1.802 1.802 0 0 1 87.869 39.491 Q 87.444 39.391 87.119 39.366 Q 86.794 39.341 86.744 39.941 A 3.203 3.203 0 0 1 84.886 41.111 A 5.118 5.118 0 0 1 83.694 41.241 A 5.311 5.311 0 0 1 81.818 40.919 A 4.801 4.801 0 0 1 80.294 39.991 A 3.923 3.923 0 0 1 79.631 39.291 Q 78.866 38.234 79.219 36.916 A 77.956 77.956 0 0 1 80.146 33.733 A 86.398 86.398 0 0 1 80.294 33.266 A 147.564 147.564 0 0 1 81.25 30.383 A 164.677 164.677 0 0 1 81.594 29.391 Q 82.794 25.891 84.244 22.091 A 9.609 9.609 0 0 0 83.672 22.824 Q 82.764 24.094 81.453 26.508 A 79.953 79.953 0 0 0 81.394 26.616 A 262.462 262.462 0 0 1 80.767 27.769 Q 79.61 29.881 79.208 30.496 A 4.256 4.256 0 0 1 79.144 30.591 A 110.231 110.231 0 0 1 78.738 31.396 Q 78.338 32.179 78.019 32.769 A 33.36 33.36 0 0 1 77.744 33.266 Q 77.194 34.241 76.269 34.816 Q 75.561 35.256 74.941 35.447 A 3.56 3.56 0 0 1 74.569 35.541 A 4.872 4.872 0 0 1 73.859 35.627 Q 73.466 35.644 73.094 35.591 A 4.301 4.301 0 0 1 72.114 35.33 A 2.777 2.777 0 0 1 70.744 34.191 L 70.444 33.391 A 3.168 3.168 0 0 1 70.355 33.112 Q 70.263 32.772 70.194 32.291 A 6.768 6.768 0 0 1 70.168 31.889 Q 70.119 30.555 70.461 28.133 A 57.467 57.467 0 0 1 70.594 27.241 Z M 9.282 41.803 A 15.616 15.616 0 0 0 9.894 41.791 A 27.321 27.321 0 0 0 10.402 41.786 Q 14.182 41.716 16.994 40.591 Q 22.794 38.291 25.194 33.691 Q 28.444 27.541 25.644 22.941 Q 24.844 21.641 23.769 20.641 Q 22.694 19.641 21.719 18.841 A 38.68 38.68 0 0 1 21.657 18.789 Q 20.721 18.018 20.019 17.341 Q 19.294 16.641 19.194 15.991 A 9.994 9.994 0 0 1 19.191 15.971 Q 18.982 14.56 19.252 13.615 A 2.375 2.375 0 0 1 20.444 12.091 A 2.902 2.902 0 0 1 20.73 11.963 Q 22.268 11.368 25.994 11.641 Q 27.842 11.414 28.976 10.851 A 3.847 3.847 0 0 0 29.994 10.141 A 1.666 1.666 0 0 0 30.255 9.764 Q 30.569 9.147 30.494 8.141 A 3.106 3.106 0 0 0 30.939 8.083 A 3.255 3.255 0 0 0 32.094 7.591 Q 32.844 7.091 33.194 6.291 Q 34.094 4.491 32.344 2.741 Q 31.344 1.991 30.344 1.291 Q 29.344 0.591 27.944 0.341 A 21.061 21.061 0 0 0 24.192 0 A 20.445 20.445 0 0 0 19.744 0.491 A 11.161 11.161 0 0 0 19.314 0.605 Q 17.349 1.169 14.294 2.741 Q 11.344 4.341 9.494 6.891 A 12.63 12.63 0 0 0 8.756 8.038 A 14.885 14.885 0 0 0 7.744 10.216 A 12.012 12.012 0 0 0 7.438 11.159 Q 7.208 11.976 7.045 12.941 A 25.436 25.436 0 0 0 6.794 14.941 A 9.624 9.624 0 0 0 6.757 15.782 A 8.604 8.604 0 0 0 7.969 20.216 A 13.267 13.267 0 0 0 9.189 21.954 A 15.295 15.295 0 0 0 11.894 24.491 A 8.409 8.409 0 0 0 12.509 25.093 A 11.463 11.463 0 0 0 13.244 25.691 A 20.764 20.764 0 0 1 13.823 26.141 A 17.279 17.279 0 0 1 14.694 26.891 Q 16.042 28.07 16.042 29.001 A 1.233 1.233 0 0 1 15.994 29.341 Q 15.544 30.741 11.894 31.941 A 3.08 3.08 0 0 1 11.863 31.954 Q 11.173 32.247 10.245 32.247 A 6.221 6.221 0 0 1 9.969 32.241 Q 9.108 32.203 7.177 31.842 A 82.04 82.04 0 0 1 5.894 31.591 A 13.017 13.017 0 0 0 5.573 31.525 Q 3.827 31.19 2.633 31.481 A 3.014 3.014 0 0 0 0.694 32.841 A 6.315 6.315 0 0 0 0.292 33.735 Q 0 34.555 0 35.359 A 4.425 4.425 0 0 0 0.094 36.266 A 5.356 5.356 0 0 0 0.505 37.486 A 5.752 5.752 0 0 0 1.769 39.191 Q 2.515 39.894 3.513 40.431 A 11.3 11.3 0 0 0 5.219 41.166 A 11.37 11.37 0 0 0 6.573 41.535 Q 7.859 41.803 9.282 41.803 Z M 186.132 41.803 A 15.616 15.616 0 0 0 186.744 41.791 A 27.321 27.321 0 0 0 187.252 41.786 Q 191.032 41.716 193.844 40.591 Q 199.644 38.291 202.044 33.691 Q 205.294 27.541 202.494 22.941 Q 201.694 21.641 200.619 20.641 Q 199.544 19.641 198.569 18.841 A 38.68 38.68 0 0 1 198.507 18.789 Q 197.571 18.018 196.869 17.341 Q 196.144 16.641 196.044 15.991 A 9.994 9.994 0 0 1 196.041 15.971 Q 195.832 14.56 196.102 13.615 A 2.375 2.375 0 0 1 197.294 12.091 A 2.902 2.902 0 0 1 197.58 11.963 Q 199.118 11.368 202.844 11.641 Q 204.692 11.414 205.826 10.851 A 3.847 3.847 0 0 0 206.844 10.141 A 1.666 1.666 0 0 0 207.105 9.764 Q 207.419 9.147 207.344 8.141 A 3.106 3.106 0 0 0 207.789 8.083 A 3.255 3.255 0 0 0 208.944 7.591 Q 209.694 7.091 210.044 6.291 Q 210.944 4.491 209.194 2.741 Q 208.194 1.991 207.194 1.291 Q 206.194 0.591 204.794 0.341 A 21.061 21.061 0 0 0 201.042 0 A 20.445 20.445 0 0 0 196.594 0.491 A 11.161 11.161 0 0 0 196.164 0.605 Q 194.199 1.169 191.144 2.741 Q 188.194 4.341 186.344 6.891 A 12.63 12.63 0 0 0 185.606 8.038 A 14.885 14.885 0 0 0 184.594 10.216 A 12.012 12.012 0 0 0 184.288 11.159 Q 184.058 11.976 183.895 12.941 A 25.436 25.436 0 0 0 183.644 14.941 A 9.624 9.624 0 0 0 183.607 15.782 A 8.604 8.604 0 0 0 184.819 20.216 A 13.267 13.267 0 0 0 186.039 21.954 A 15.295 15.295 0 0 0 188.744 24.491 A 8.409 8.409 0 0 0 189.359 25.093 A 11.463 11.463 0 0 0 190.094 25.691 A 20.764 20.764 0 0 1 190.673 26.141 A 17.279 17.279 0 0 1 191.544 26.891 Q 192.892 28.07 192.892 29.001 A 1.233 1.233 0 0 1 192.844 29.341 Q 192.394 30.741 188.744 31.941 A 3.08 3.08 0 0 1 188.713 31.954 Q 188.023 32.247 187.095 32.247 A 6.221 6.221 0 0 1 186.819 32.241 Q 185.958 32.203 184.027 31.842 A 82.04 82.04 0 0 1 182.744 31.591 A 13.017 13.017 0 0 0 182.423 31.525 Q 180.677 31.19 179.483 31.481 A 3.014 3.014 0 0 0 177.544 32.841 A 6.315 6.315 0 0 0 177.142 33.735 Q 176.85 34.555 176.85 35.359 A 4.425 4.425 0 0 0 176.944 36.266 A 5.356 5.356 0 0 0 177.355 37.486 A 5.752 5.752 0 0 0 178.619 39.191 Q 179.365 39.894 180.363 40.431 A 11.3 11.3 0 0 0 182.069 41.166 A 11.37 11.37 0 0 0 183.423 41.535 Q 184.709 41.803 186.132 41.803 Z M 136.695 41.541 A 8.848 8.848 0 0 0 137.844 41.291 A 7.332 7.332 0 0 0 138.923 40.89 A 5.064 5.064 0 0 0 141.444 38.441 Q 142.494 36.291 141.244 34.991 Q 140.744 34.491 140.244 33.966 A 1.585 1.585 0 0 1 139.856 33.259 Q 139.79 33.003 139.79 32.701 A 2.895 2.895 0 0 1 139.794 32.541 Q 138.944 31.891 137.694 31.891 Q 136.444 31.891 135.169 32.166 A 35.62 35.62 0 0 0 134.852 32.236 A 32.446 32.446 0 0 0 132.719 32.791 Q 131.893 33.037 131.326 33.135 A 4.675 4.675 0 0 1 130.894 33.191 A 0.696 0.696 0 0 1 130.815 33.136 Q 130.682 33.028 130.686 32.898 A 0.272 0.272 0 0 1 130.694 32.841 A 142.721 142.721 0 0 1 132.201 29.595 A 118.912 118.912 0 0 1 134.744 24.591 Q 136.794 20.791 138.544 17.391 A 139.706 139.706 0 0 0 139.804 14.883 A 116.783 116.783 0 0 0 141.669 10.891 A 36.862 36.862 0 0 0 141.921 10.31 A 33.146 33.146 0 0 0 143.744 4.691 A 6.41 6.41 0 0 0 143.762 4.505 Q 143.946 2.25 142.359 1.282 A 4.414 4.414 0 0 0 141.144 0.791 A 7.47 7.47 0 0 0 139.358 0.58 Q 137.438 0.58 135.244 1.491 Q 133.177 2.293 132.195 3.324 A 3.144 3.144 0 0 0 131.394 4.691 A 0.065 0.065 0 0 1 131.39 4.707 Q 131.356 4.814 131.011 5.525 A 98.474 98.474 0 0 1 130.894 5.766 A 58.414 58.414 0 0 0 130.57 6.443 Q 130.401 6.8 130.22 7.194 A 104.64 104.64 0 0 0 129.769 8.191 Q 129.144 9.591 128.294 11.491 A 53.64 53.64 0 0 0 128.199 11.681 Q 126.76 14.553 125.078 18.753 A 186.496 186.496 0 0 0 123.444 22.991 Q 122.294 26.041 121.394 28.766 A 484.154 484.154 0 0 0 121.373 28.831 Q 120.711 30.834 120.227 32.361 A 176.442 176.442 0 0 0 119.919 33.341 Q 119.482 34.747 119.666 35.547 A 1.442 1.442 0 0 0 119.844 35.991 A 4.49 4.49 0 0 0 119.851 36.004 Q 120.049 36.398 120.369 36.841 Q 120.613 37.178 120.815 37.882 A 9.473 9.473 0 0 1 120.944 38.391 A 7.371 7.371 0 0 0 121.158 39.134 Q 121.374 39.754 121.68 40.22 A 3.016 3.016 0 0 0 123.044 41.391 Q 123.744 41.691 124.544 41.691 Q 125.344 41.691 126.144 41.641 Q 128.694 41.716 130.288 41.735 A 82.046 82.046 0 0 0 131.244 41.741 A 99.046 99.046 0 0 0 132.001 41.738 Q 133.173 41.729 133.919 41.691 Q 134.894 41.641 135.844 41.616 A 7.182 7.182 0 0 0 136.695 41.541 Z M 116.644 17.441 L 116.844 17.491 A 0.3 0.3 0 0 1 116.878 17.493 Q 116.911 17.496 116.928 17.509 A 0.038 0.038 0 0 1 116.944 17.541 A 2.257 2.257 0 0 1 117.306 17.434 Q 118.328 17.227 119.042 18.216 A 3.25 3.25 0 0 1 119.094 18.291 A 3.913 3.913 0 0 1 119.414 18.91 Q 119.692 19.578 119.884 20.561 A 14.757 14.757 0 0 1 119.944 20.891 A 16.749 16.749 0 0 1 119.958 21.426 Q 119.98 23.746 119.444 27.541 A 991.888 991.888 0 0 0 119.05 30.522 Q 118.379 35.661 118.228 37.352 A 16.038 16.038 0 0 0 118.194 37.791 A 2.576 2.576 0 0 1 118.198 37.938 Q 118.198 39.569 116.044 40.191 Q 114.098 40.79 112.152 40.144 A 7.063 7.063 0 0 1 112.144 40.141 A 4.834 4.834 0 0 1 111.462 39.853 Q 110.218 39.201 110.422 38.096 A 1.969 1.969 0 0 1 110.444 37.991 A 5.84 5.84 0 0 1 110.194 38.418 Q 109.928 38.828 109.662 39.051 A 1.639 1.639 0 0 1 109.644 39.066 A 2.992 2.992 0 0 1 109.396 39.244 Q 108.971 39.521 108.149 39.927 A 28.562 28.562 0 0 1 108.069 39.966 A 7.51 7.51 0 0 1 107.193 40.322 Q 106.255 40.641 104.934 40.882 A 25.401 25.401 0 0 1 104.744 40.916 Q 102.594 41.291 100.444 41.116 A 11.228 11.228 0 0 1 97.665 40.544 A 10 10 0 0 1 96.519 40.066 A 4.616 4.616 0 0 1 94.894 38.773 A 4.606 4.606 0 0 1 94.144 37.341 Q 92.994 33.741 94.444 28.191 Q 95.444 24.541 98.044 21.741 Q 101.044 18.541 104.844 16.441 A 17.845 17.845 0 0 1 107.472 15.262 A 13.189 13.189 0 0 1 110.344 14.591 Q 111.244 14.491 111.919 14.641 Q 112.594 14.791 113.369 14.941 Q 114.144 15.091 114.844 15.391 A 4.866 4.866 0 0 1 115.589 15.773 Q 115.968 16.015 116.211 16.298 A 1.709 1.709 0 0 1 116.644 17.441 Z M 37.693 17.053 A 2.635 2.635 0 0 0 36.194 17.541 A 6.777 6.777 0 0 0 35.992 17.684 Q 33.761 19.326 31.919 23.416 A 26.854 26.854 0 0 0 31.065 25.549 A 22.291 22.291 0 0 0 29.794 31.891 A 20.165 20.165 0 0 0 29.777 32.192 Q 29.652 34.803 30.261 36.633 A 6.216 6.216 0 0 0 31.544 38.891 Q 33.294 40.891 35.994 41.441 Q 37.244 41.691 38.569 41.716 A 44.316 44.316 0 0 0 38.68 41.718 Q 39.961 41.739 41.494 41.691 Q 43.094 41.641 45.094 41.216 A 7.45 7.45 0 0 0 47.163 40.433 A 9.665 9.665 0 0 0 48.894 39.191 A 17.159 17.159 0 0 0 52.356 35.022 A 21.184 21.184 0 0 0 54.494 29.991 Q 56.044 24.791 54.844 20.391 Q 54.244 17.391 51.294 15.791 A 8.635 8.635 0 0 0 49.935 15.187 A 10.89 10.89 0 0 0 48.169 14.741 Q 46.394 14.441 45.144 14.641 Q 43.894 14.841 43.194 14.891 A 5.894 5.894 0 0 0 42.466 14.962 Q 40.34 15.307 39.394 17.241 Q 39.094 17.241 38.794 17.191 A 4.653 4.653 0 0 0 38.334 17.096 Q 38.001 17.045 37.693 17.053 Z M 43.847 27.868 A 7.773 7.773 0 0 0 44.994 27.591 A 12.924 12.924 0 0 1 45.028 27.878 Q 45.297 30.454 44.444 32.491 Q 43.994 33.641 43.169 34.491 A 5.164 5.164 0 0 1 42.533 35.051 A 3.881 3.881 0 0 1 41.394 35.641 Q 40.444 35.941 38.444 35.741 A 3.803 3.803 0 0 1 38.351 35.497 Q 37.946 34.321 38.444 33.166 A 12.68 12.68 0 0 1 38.514 33.007 A 13.669 13.669 0 0 1 39.844 30.691 A 0.016 0.016 0 0 0 39.848 30.702 Q 39.889 30.747 40.405 30.369 A 16.082 16.082 0 0 0 40.544 30.266 A 5.68 5.68 0 0 0 41.012 29.876 A 4.51 4.51 0 0 0 41.669 29.116 Q 42.094 28.491 42.644 27.941 A 5.424 5.424 0 0 0 42.891 27.946 Q 43.356 27.946 43.847 27.868 Z M 107.394 30.691 A 5.619 5.619 0 0 0 107.667 30.038 Q 107.839 29.548 107.969 28.941 A 20.919 20.919 0 0 1 108.238 27.841 A 28.26 28.26 0 0 1 108.594 26.641 Q 104.544 28.291 102.394 30.691 A 7.567 7.567 0 0 0 101.924 31.273 Q 100.486 33.261 102.307 34.173 A 4.08 4.08 0 0 0 102.694 34.341 A 6.222 6.222 0 0 0 103.291 34.467 Q 105.136 34.759 106.044 33.591 A 5.147 5.147 0 0 0 106.444 32.962 Q 106.618 32.643 106.774 32.267 A 8.895 8.895 0 0 0 106.844 32.091 A 17.086 17.086 0 0 1 107.396 30.83 A 20.036 20.036 0 0 1 107.694 30.241 A 5.826 5.826 0 0 1 107.525 30.506 A 4.623 4.623 0 0 1 107.394 30.691 Z M 79.694 29.491 L 79.694 29.591 Q 79.794 29.391 79.694 29.491 Z" vector-effect="non-scaling-stroke"/></g></svg>